<svg xmlns="http://www.w3.org/2000/svg" viewBox="0 0 172 162"><defs><style>.cls-1{fill:#e6e6e6;}.cls-2{fill:#ededed;}.cls-3{fill:#fff;}.cls-4{fill:#34234d;}.cls-5{fill:#ff6e86;}.cls-6{fill:#2fc8f2;}.cls-7{fill:#00b5f4;}.cls-8{fill:#ff5067;}.cls-9{fill:#a09cad;}</style></defs><title>Asset 31</title><g id="Layer_2" data-name="Layer 2"><g id="Layer_1-2" data-name="Layer 1"><path class="cls-1" d="M146.71,48.66c-6.34-11.92-4.21-32.77-15.63-39.94-11.08-7-28.68,3.92-42.68,3.43S57.6-.41,46.06,5.75C34.17,12.1,34.84,33,27.69,44.5,20.75,55.59,1.5,64,1,78s18.13,23.75,24.28,35.31c6.34,11.92,4.21,32.77,15.63,39.94,11.08,6.95,28.68-3.92,42.68-3.43s30.8,12.56,42.34,6.4c11.89-6.35,11.22-27.29,18.37-38.75C151.25,106.41,170.5,98,171,84S152.86,60.22,146.71,48.66Z"/><path class="cls-2" d="M151,40H21V140a6,6,0,0,0,6,6H129l22-22Z"/><path class="cls-3" d="M142,40H21V140a6,6,0,0,0,6,6H129l13-13Z"/><path class="cls-4" d="M52,147H27a7,7,0,0,1-7-7V98a1,1,0,0,1,2,0v42a5,5,0,0,0,5,5H52a1,1,0,0,1,0,2Z"/><path class="cls-4" d="M21,93a1,1,0,0,1-1-1V40a1,1,0,0,1,1-1H151a1,1,0,0,1,1,1V72a1,1,0,0,1-2,0V41H22V92A1,1,0,0,1,21,93Z"/><path class="cls-4" d="M129,147H58a1,1,0,0,1,0-2h70.59L150,123.59V78a1,1,0,0,1,2,0v46a1,1,0,0,1-.29.71l-22,22A1,1,0,0,1,129,147Z"/><path class="cls-5" d="M27,24H145a6,6,0,0,1,6,6V40a0,0,0,0,1,0,0H21a0,0,0,0,1,0,0V30A6,6,0,0,1,27,24Z"/><path class="cls-6" d="M27,24H145a6,6,0,0,1,6,6V40a0,0,0,0,1,0,0H21a0,0,0,0,1,0,0V30A6,6,0,0,1,27,24Z"/><path class="cls-7" d="M36,24H145a6,6,0,0,1,6,6V40a0,0,0,0,1,0,0H30a0,0,0,0,1,0,0V30A6,6,0,0,1,36,24Z"/><path class="cls-4" d="M151,41H21a1,1,0,0,1-1-1V30a7,7,0,0,1,7-7H145a7,7,0,0,1,7,7V40A1,1,0,0,1,151,41ZM22,39H150V30a5,5,0,0,0-5-5H27a5,5,0,0,0-5,5Z"/><circle class="cls-7" cx="102" cy="109" r="4"/><circle class="cls-7" cx="70" cy="61" r="4"/><circle class="cls-7" cx="70" cy="77" r="4"/><circle class="cls-7" cx="38" cy="93" r="4"/><circle class="cls-7" cx="38" cy="125" r="4"/><circle class="cls-7" cx="86" cy="125" r="4"/><circle class="cls-7" cx="102" cy="61" r="4"/><circle class="cls-7" cx="86" cy="93" r="4"/><circle class="cls-7" cx="54" cy="109" r="4"/><circle class="cls-7" cx="54" cy="77" r="4"/><circle class="cls-7" cx="70" cy="125" r="4"/><rect class="cls-8" x="114" y="105" width="8" height="8" rx="0.79"/><rect class="cls-8" x="130" y="105" width="8" height="8" rx="0.79"/><rect class="cls-8" x="114" y="89" width="8" height="8" rx="0.79"/><rect class="cls-8" x="130" y="89" width="8" height="8" rx="0.79"/><rect class="cls-8" x="114" y="73" width="8" height="8" rx="0.79"/><rect class="cls-8" x="130" y="73" width="8" height="8" rx="0.79"/><rect class="cls-8" x="114" y="57" width="8" height="8" rx="0.79"/><rect class="cls-8" x="130" y="57" width="8" height="8" rx="0.79"/><path class="cls-9" d="M126,118.5H110a1.5,1.5,0,0,1-1.5-1.5V101a1.5,1.5,0,0,1,1.5-1.5h16a1.5,1.5,0,0,1,1.5,1.5v16A1.5,1.5,0,0,1,126,118.5Zm-14.5-3h13v-13h-13Z"/><path class="cls-9" d="M142,118.5H126a1.5,1.5,0,0,1-1.5-1.5V101a1.5,1.5,0,0,1,1.5-1.5h16a1.5,1.5,0,0,1,1.5,1.5v16A1.5,1.5,0,0,1,142,118.5Zm-14.5-3h13v-13h-13Z"/><path class="cls-9" d="M110,118.5H94a1.5,1.5,0,0,1-1.5-1.5V101A1.5,1.5,0,0,1,94,99.5h16a1.5,1.5,0,0,1,1.5,1.5v16A1.5,1.5,0,0,1,110,118.5Zm-14.5-3h13v-13h-13Z"/><path class="cls-9" d="M78,118.5H62a1.5,1.5,0,0,1-1.5-1.5V101A1.5,1.5,0,0,1,62,99.5H78a1.5,1.5,0,0,1,1.5,1.5v16A1.5,1.5,0,0,1,78,118.5Zm-14.5-3h13v-13h-13Z"/><path class="cls-9" d="M94,118.5H78a1.5,1.5,0,0,1-1.5-1.5V101A1.5,1.5,0,0,1,78,99.5H94a1.5,1.5,0,0,1,1.5,1.5v16A1.5,1.5,0,0,1,94,118.5Zm-14.5-3h13v-13h-13Z"/><path class="cls-9" d="M62,118.5H46a1.5,1.5,0,0,1-1.5-1.5V101A1.5,1.5,0,0,1,46,99.5H62a1.5,1.5,0,0,1,1.5,1.5v16A1.5,1.5,0,0,1,62,118.5Zm-14.5-3h13v-13h-13Z"/><path class="cls-9" d="M46,118.5H30a1.5,1.5,0,0,1-1.5-1.5V101A1.5,1.5,0,0,1,30,99.5H46a1.5,1.5,0,0,1,1.5,1.5v16A1.5,1.5,0,0,1,46,118.5Zm-14.5-3h13v-13h-13Z"/><path class="cls-9" d="M126,102.5H110a1.5,1.5,0,0,1-1.5-1.5V85a1.5,1.5,0,0,1,1.5-1.5h16a1.5,1.5,0,0,1,1.5,1.5v16A1.5,1.5,0,0,1,126,102.5Zm-14.5-3h13v-13h-13Z"/><path class="cls-9" d="M142,102.5H126a1.5,1.5,0,0,1-1.5-1.5V85a1.5,1.5,0,0,1,1.5-1.5h16a1.5,1.5,0,0,1,1.5,1.5v16A1.5,1.5,0,0,1,142,102.5Zm-14.5-3h13v-13h-13Z"/><path class="cls-9" d="M110,102.5H94a1.5,1.5,0,0,1-1.5-1.5V85A1.5,1.5,0,0,1,94,83.5h16a1.5,1.5,0,0,1,1.5,1.5v16A1.5,1.5,0,0,1,110,102.5Zm-14.5-3h13v-13h-13Z"/><path class="cls-9" d="M78,102.5H62a1.5,1.5,0,0,1-1.5-1.5V85A1.5,1.5,0,0,1,62,83.5H78A1.5,1.5,0,0,1,79.5,85v16A1.5,1.5,0,0,1,78,102.5Zm-14.5-3h13v-13h-13Z"/><path class="cls-9" d="M94,102.5H78a1.5,1.5,0,0,1-1.5-1.5V85A1.5,1.5,0,0,1,78,83.5H94A1.5,1.5,0,0,1,95.5,85v16A1.5,1.5,0,0,1,94,102.5Zm-14.5-3h13v-13h-13Z"/><path class="cls-9" d="M62,102.5H46a1.5,1.5,0,0,1-1.5-1.5V85A1.5,1.5,0,0,1,46,83.5H62A1.5,1.5,0,0,1,63.5,85v16A1.5,1.5,0,0,1,62,102.5Zm-14.5-3h13v-13h-13Z"/><path class="cls-9" d="M46,102.5H30a1.5,1.5,0,0,1-1.5-1.5V85A1.5,1.5,0,0,1,30,83.5H46A1.5,1.5,0,0,1,47.5,85v16A1.5,1.5,0,0,1,46,102.5Zm-14.5-3h13v-13h-13Z"/><path class="cls-9" d="M126,86.5H110a1.5,1.5,0,0,1-1.5-1.5V69a1.5,1.5,0,0,1,1.5-1.5h16a1.5,1.5,0,0,1,1.5,1.5V85A1.5,1.5,0,0,1,126,86.5Zm-14.5-3h13v-13h-13Z"/><path class="cls-9" d="M142,86.5H126a1.5,1.5,0,0,1-1.5-1.5V69a1.5,1.5,0,0,1,1.5-1.5h16a1.5,1.5,0,0,1,1.5,1.5V85A1.5,1.5,0,0,1,142,86.5Zm-14.5-3h13v-13h-13Z"/><path class="cls-9" d="M110,86.5H94A1.5,1.5,0,0,1,92.5,85V69A1.5,1.5,0,0,1,94,67.5h16a1.5,1.5,0,0,1,1.5,1.5V85A1.5,1.5,0,0,1,110,86.5Zm-14.5-3h13v-13h-13Z"/><path class="cls-9" d="M78,86.5H62A1.5,1.5,0,0,1,60.5,85V69A1.5,1.5,0,0,1,62,67.5H78A1.5,1.5,0,0,1,79.5,69V85A1.5,1.5,0,0,1,78,86.5Zm-14.5-3h13v-13h-13Z"/><path class="cls-9" d="M94,86.5H78A1.5,1.5,0,0,1,76.5,85V69A1.5,1.5,0,0,1,78,67.5H94A1.5,1.5,0,0,1,95.5,69V85A1.5,1.5,0,0,1,94,86.5Zm-14.5-3h13v-13h-13Z"/><path class="cls-9" d="M62,86.5H46A1.5,1.5,0,0,1,44.5,85V69A1.5,1.5,0,0,1,46,67.5H62A1.5,1.5,0,0,1,63.5,69V85A1.5,1.5,0,0,1,62,86.5Zm-14.5-3h13v-13h-13Z"/><path class="cls-9" d="M46,86.5H30A1.5,1.5,0,0,1,28.5,85V69A1.5,1.5,0,0,1,30,67.5H46A1.5,1.5,0,0,1,47.5,69V85A1.5,1.5,0,0,1,46,86.5Zm-14.5-3h13v-13h-13Z"/><path class="cls-9" d="M126,70.5H110a1.5,1.5,0,0,1-1.5-1.5V53a1.5,1.5,0,0,1,1.5-1.5h16a1.5,1.5,0,0,1,1.5,1.5V69A1.5,1.5,0,0,1,126,70.5Zm-14.5-3h13v-13h-13Z"/><path class="cls-9" d="M142,70.5H126a1.5,1.5,0,0,1-1.5-1.5V53a1.5,1.5,0,0,1,1.5-1.5h16a1.5,1.5,0,0,1,1.5,1.5V69A1.5,1.5,0,0,1,142,70.5Zm-14.5-3h13v-13h-13Z"/><path class="cls-9" d="M110,70.5H94A1.5,1.5,0,0,1,92.5,69V53A1.5,1.5,0,0,1,94,51.5h16a1.5,1.5,0,0,1,1.5,1.5V69A1.5,1.5,0,0,1,110,70.5Zm-14.5-3h13v-13h-13Z"/><path class="cls-9" d="M78,70.5H62A1.5,1.5,0,0,1,60.5,69V53A1.5,1.5,0,0,1,62,51.5H78A1.5,1.5,0,0,1,79.5,53V69A1.5,1.5,0,0,1,78,70.5Zm-14.5-3h13v-13h-13Z"/><path class="cls-9" d="M94,70.5H78A1.5,1.5,0,0,1,76.5,69V53A1.5,1.5,0,0,1,78,51.5H94A1.5,1.5,0,0,1,95.5,53V69A1.5,1.5,0,0,1,94,70.5Zm-14.5-3h13v-13h-13Z"/><path class="cls-9" d="M110,134.5H94a1.5,1.5,0,0,1-1.5-1.5V117a1.5,1.5,0,0,1,1.5-1.5h16a1.5,1.5,0,0,1,1.5,1.5v16A1.5,1.5,0,0,1,110,134.5Zm-14.5-3h13v-13h-13Z"/><path class="cls-9" d="M78,134.5H62a1.5,1.5,0,0,1-1.5-1.5V117a1.5,1.5,0,0,1,1.5-1.5H78a1.5,1.5,0,0,1,1.5,1.5v16A1.5,1.5,0,0,1,78,134.5Zm-14.5-3h13v-13h-13Z"/><path class="cls-9" d="M94,134.5H78a1.5,1.5,0,0,1-1.5-1.5V117a1.5,1.5,0,0,1,1.5-1.5H94a1.5,1.5,0,0,1,1.5,1.5v16A1.5,1.5,0,0,1,94,134.5Zm-14.5-3h13v-13h-13Z"/><path class="cls-9" d="M62,134.5H46a1.5,1.5,0,0,1-1.5-1.5V117a1.5,1.5,0,0,1,1.5-1.5H62a1.5,1.5,0,0,1,1.5,1.5v16A1.5,1.5,0,0,1,62,134.5Zm-14.5-3h13v-13h-13Z"/><path class="cls-9" d="M46,134.5H30a1.5,1.5,0,0,1-1.5-1.5V117a1.5,1.5,0,0,1,1.5-1.5H46a1.5,1.5,0,0,1,1.5,1.5v16A1.5,1.5,0,0,1,46,134.5Zm-14.5-3h13v-13h-13Z"/><polygon class="cls-8" points="151 124 129 146 129 124 151 124"/><path class="cls-4" d="M129,147a.84.84,0,0,1-.38-.08A1,1,0,0,1,128,146V124a1,1,0,0,1,1-1h22a1,1,0,0,1,.92.62,1,1,0,0,1-.21,1.09l-22,22A1,1,0,0,1,129,147Zm1-22v18.59L148.59,125Z"/><path class="cls-4" d="M86,33a1,1,0,0,1,0-2,4,4,0,0,0,4-4V21a4,4,0,0,0-8,0v3a1,1,0,0,1-2,0V21a6,6,0,0,1,12,0v6A6,6,0,0,1,86,33Z"/><path class="cls-4" d="M62,33a1,1,0,0,1,0-2,4,4,0,0,0,4-4V21a4,4,0,0,0-8,0v3a1,1,0,0,1-2,0V21a6,6,0,0,1,12,0v6A6,6,0,0,1,62,33Z"/><path class="cls-4" d="M38,33a1,1,0,0,1,0-2,4,4,0,0,0,4-4V21a4,4,0,0,0-8,0v3a1,1,0,0,1-2,0V21a6,6,0,0,1,12,0v6A6,6,0,0,1,38,33Z"/><path class="cls-4" d="M134,33a1,1,0,0,1,0-2,4,4,0,0,0,4-4V21a4,4,0,0,0-8,0v3a1,1,0,0,1-2,0V21a6,6,0,0,1,12,0v6A6,6,0,0,1,134,33Z"/><path class="cls-4" d="M110,33a1,1,0,0,1,0-2,4,4,0,0,0,4-4V21a4,4,0,0,0-8,0v3a1,1,0,0,1-2,0V21a6,6,0,0,1,12,0v6A6,6,0,0,1,110,33Z"/><path class="cls-9" d="M69,6H61a1,1,0,0,1,0-2h8a1,1,0,0,1,0,2Z"/><path class="cls-9" d="M65,10a1,1,0,0,1-1-1V1a1,1,0,0,1,2,0V9A1,1,0,0,1,65,10Z"/><path class="cls-9" d="M161,20H151a1,1,0,0,1,0-2h10a1,1,0,0,1,0,2Z"/><path class="cls-9" d="M156,25a1,1,0,0,1-1-1V14a1,1,0,0,1,2,0V24A1,1,0,0,1,156,25Z"/><path class="cls-9" d="M86,158H78a1,1,0,0,1,0-2h8a1,1,0,0,1,0,2Z"/><path class="cls-9" d="M82,162a1,1,0,0,1-1-1v-8a1,1,0,0,1,2,0v8A1,1,0,0,1,82,162Z"/><path class="cls-9" d="M157,144H147a1,1,0,0,1,0-2h10a1,1,0,0,1,0,2Z"/><path class="cls-9" d="M152,149a1,1,0,0,1-1-1V138a1,1,0,0,1,2,0v10A1,1,0,0,1,152,149Z"/><path class="cls-9" d="M169,102H157a1,1,0,0,1,0-2h12a1,1,0,0,1,0,2Z"/><path class="cls-9" d="M163,108a1,1,0,0,1-1-1V95a1,1,0,0,1,2,0v12A1,1,0,0,1,163,108Z"/><path class="cls-9" d="M22,152H12a1,1,0,0,1,0-2H22a1,1,0,0,1,0,2Z"/><path class="cls-9" d="M17,157a1,1,0,0,1-1-1V146a1,1,0,0,1,2,0v10A1,1,0,0,1,17,157Z"/><path class="cls-9" d="M9,103H1a1,1,0,0,1,0-2H9a1,1,0,0,1,0,2Z"/><path class="cls-9" d="M5,107a1,1,0,0,1-1-1V98a1,1,0,0,1,2,0v8A1,1,0,0,1,5,107Z"/><path class="cls-9" d="M16,49H6a1,1,0,0,1,0-2H16a1,1,0,0,1,0,2Z"/><path class="cls-9" d="M11,54a1,1,0,0,1-1-1V43a1,1,0,0,1,2,0V53A1,1,0,0,1,11,54Z"/><path class="cls-9" d="M171,58h-8a1,1,0,0,1,0-2h8a1,1,0,0,1,0,2Z"/><path class="cls-9" d="M167,62a1,1,0,0,1-1-1V53a1,1,0,0,1,2,0v8A1,1,0,0,1,167,62Z"/></g></g></svg>