<svg xmlns="http://www.w3.org/2000/svg" viewBox="0 0 172 162"><defs><style>.cls-1{fill:#e6e6e6;}.cls-2{fill:#a09cad;}.cls-3{fill:#ff6e86;}.cls-4{fill:#ff5067;}.cls-5{fill:#34234d;}.cls-6{fill:#ededed;}.cls-7{fill:#fff;}.cls-8{fill:#00b5f4;}.cls-9{fill:#b8b5c6;}.cls-10{fill:#2fc8f2;}</style></defs><title>Asset 41</title><g id="Layer_2" data-name="Layer 2"><g id="Layer_1-2" data-name="Layer 1"><path class="cls-1" d="M166.57,60.54C163.33,47.18,143.29,43,134.48,33.69c-9.09-9.56-9-26-23.38-31.74-11.85-4.73-27.7,9.55-41,12.8s-30.13-2.36-40,7.5c-9.32,9.33-4.79,26.43-8.49,39.13C18.06,73.68,2.2,86.72,5.43,100.08s23.28,17.59,32.09,26.85c9.09,9.56,12.58,29.78,25.19,33.51,12.23,3.61,25.89-11.32,39.17-14.57s32.22,3.67,41.42-5.2c9.5-9.16,3.35-28.73,7-41.42C153.94,86.94,169.8,73.9,166.57,60.54Z"/><path class="cls-2" d="M125,155a1,1,0,0,1-.71-.29,1,1,0,0,1,0-1.42l3-3a1,1,0,0,1,1.42,1.42l-3,3A1,1,0,0,1,125,155Z"/><path class="cls-2" d="M118,162a1,1,0,0,1-.71-.29,1,1,0,0,1,0-1.42l3-3a1,1,0,0,1,1.42,1.42l-3,3A1,1,0,0,1,118,162Z"/><path class="cls-2" d="M128,162a1,1,0,0,1-.71-.29l-3-3a1,1,0,0,1,1.42-1.42l3,3a1,1,0,0,1,0,1.42A1,1,0,0,1,128,162Z"/><path class="cls-2" d="M121,155a1,1,0,0,1-.71-.29l-3-3a1,1,0,0,1,1.42-1.42l3,3a1,1,0,0,1,0,1.42A1,1,0,0,1,121,155Z"/><path class="cls-2" d="M8,63a1,1,0,0,1-.71-.29,1,1,0,0,1,0-1.42l3-3a1,1,0,0,1,1.42,1.42l-3,3A1,1,0,0,1,8,63Z"/><path class="cls-2" d="M1,70a1,1,0,0,1-.71-.29,1,1,0,0,1,0-1.42l3-3a1,1,0,0,1,1.42,1.42l-3,3A1,1,0,0,1,1,70Z"/><path class="cls-2" d="M11,70a1,1,0,0,1-.71-.29l-3-3a1,1,0,1,1,1.42-1.42l3,3a1,1,0,0,1,0,1.42A1,1,0,0,1,11,70Z"/><path class="cls-2" d="M4,63a1,1,0,0,1-.71-.29l-3-3a1,1,0,0,1,1.42-1.42l3,3a1,1,0,0,1,0,1.42A1,1,0,0,1,4,63Z"/><path class="cls-2" d="M26,131a1,1,0,0,1-.71-.29,1,1,0,0,1,0-1.42l3-3a1,1,0,1,1,1.42,1.42l-3,3A1,1,0,0,1,26,131Z"/><path class="cls-2" d="M19,138a1,1,0,0,1-.71-.29,1,1,0,0,1,0-1.42l3-3a1,1,0,0,1,1.42,1.42l-3,3A1,1,0,0,1,19,138Z"/><path class="cls-2" d="M29,138a1,1,0,0,1-.71-.29l-3-3a1,1,0,0,1,1.42-1.42l3,3a1,1,0,0,1,0,1.42A1,1,0,0,1,29,138Z"/><path class="cls-2" d="M22,131a1,1,0,0,1-.71-.29l-3-3a1,1,0,0,1,1.42-1.42l3,3a1,1,0,0,1,0,1.42A1,1,0,0,1,22,131Z"/><path class="cls-2" d="M144,22a1,1,0,0,1-.71-.29,1,1,0,0,1,0-1.42l3-3a1,1,0,1,1,1.42,1.42l-3,3A1,1,0,0,1,144,22Z"/><path class="cls-2" d="M137,29a1,1,0,0,1-.71-.29,1,1,0,0,1,0-1.42l3-3a1,1,0,1,1,1.42,1.42l-3,3A1,1,0,0,1,137,29Z"/><path class="cls-2" d="M147,29a1,1,0,0,1-.71-.29l-3-3a1,1,0,0,1,1.42-1.42l3,3a1,1,0,0,1,0,1.42A1,1,0,0,1,147,29Z"/><path class="cls-2" d="M140,22a1,1,0,0,1-.71-.29l-3-3a1,1,0,0,1,1.42-1.42l3,3a1,1,0,0,1,0,1.42A1,1,0,0,1,140,22Z"/><path class="cls-2" d="M56,5a1,1,0,0,1-.71-.29,1,1,0,0,1,0-1.42l3-3a1,1,0,1,1,1.42,1.42l-3,3A1,1,0,0,1,56,5Z"/><path class="cls-2" d="M49,12a1,1,0,0,1-.71-.29,1,1,0,0,1,0-1.42l3-3a1,1,0,1,1,1.42,1.42l-3,3A1,1,0,0,1,49,12Z"/><path class="cls-2" d="M59,12a1,1,0,0,1-.71-.29l-3-3a1,1,0,1,1,1.42-1.42l3,3a1,1,0,0,1,0,1.42A1,1,0,0,1,59,12Z"/><path class="cls-2" d="M52,5a1,1,0,0,1-.71-.29l-3-3A1,1,0,0,1,49.71.29l3,3a1,1,0,0,1,0,1.42A1,1,0,0,1,52,5Z"/><path class="cls-2" d="M168,110a1,1,0,0,1-.71-.29,1,1,0,0,1,0-1.42l3-3a1,1,0,1,1,1.42,1.42l-3,3A1,1,0,0,1,168,110Z"/><path class="cls-2" d="M161,117a1,1,0,0,1-.71-.29,1,1,0,0,1,0-1.42l3-3a1,1,0,1,1,1.42,1.42l-3,3A1,1,0,0,1,161,117Z"/><path class="cls-2" d="M171,117a1,1,0,0,1-.71-.29l-3-3a1,1,0,0,1,1.42-1.42l3,3a1,1,0,0,1,0,1.42A1,1,0,0,1,171,117Z"/><path class="cls-2" d="M164,110a1,1,0,0,1-.71-.29l-3-3a1,1,0,0,1,1.42-1.42l3,3a1,1,0,0,1,0,1.42A1,1,0,0,1,164,110Z"/><path class="cls-3" d="M91,21a64.78,64.78,0,0,1,43.39,16.61,65,65,0,1,0-91.78,91.78A65,65,0,0,1,91,21Z"/><path class="cls-4" d="M151,81a64.78,64.78,0,0,0-16.61-43.39,65,65,0,0,0-91.78,91.78A65,65,0,0,0,151,81Z"/><path class="cls-5" d="M86,147A66,66,0,1,1,102.17,17a1,1,0,1,1-.49,1.93A64,64,0,1,0,86,145a63.72,63.72,0,0,0,35.63-10.83,1,1,0,1,1,1.12,1.66A65.66,65.66,0,0,1,86,147Z"/><path class="cls-5" d="M127.47,132.06a1,1,0,0,1-.64-1.77A64,64,0,0,0,108.68,21.14a1,1,0,0,1-.58-1.29,1,1,0,0,1,1.29-.58,66,66,0,0,1,18.72,112.56A1,1,0,0,1,127.47,132.06Z"/><path class="cls-6" d="M121.06,39.94a54,54,0,0,1-76.12,76.12,54,54,0,1,0,76.12-76.12Z"/><path class="cls-7" d="M134,75a53.82,53.82,0,0,0-12.94-35.06,54,54,0,0,0-76.12,76.12A54,54,0,0,0,134,75Z"/><path class="cls-6" d="M47.26,86H39.5a3,3,0,0,1,0-6h7.76a3,3,0,0,1,0,6Z"/><path class="cls-6" d="M136.5,86h-7.76a3,3,0,0,1,0-6h7.76a3,3,0,0,1,0,6Z"/><path class="cls-6" d="M88,44.29a3,3,0,0,1-3-3V34.5a3,3,0,0,1,6,0v6.79A3,3,0,0,1,88,44.29Z"/><path class="cls-6" d="M88,134.5a3,3,0,0,1-3-3v-7.76a3,3,0,0,1,6,0v7.76A3,3,0,0,1,88,134.5Z"/><path class="cls-6" d="M46,110.25a3,3,0,0,1-1.5-5.6l4.2-2.42a3,3,0,1,1,3,5.19l-4.2,2.43A3,3,0,0,1,46,110.25Z"/><path class="cls-6" d="M125.81,64.18a3,3,0,0,1-1.51-5.6l4.2-2.43a3,3,0,0,1,3,5.2l-4.2,2.42A2.92,2.92,0,0,1,125.81,64.18Z"/><path class="cls-6" d="M65.69,47.36a3,3,0,0,1-2.6-1.5L61.15,42.5a3,3,0,0,1,5.2-3l1.94,3.36a3,3,0,0,1-2.6,4.5Z"/><path class="cls-6" d="M112.25,128a3,3,0,0,1-2.6-1.5l-2.42-4.2a3,3,0,1,1,5.19-3l2.43,4.2a3,3,0,0,1-2.6,4.5Z"/><path class="cls-6" d="M63.75,128a3,3,0,0,1-2.6-4.5l2.43-4.2a3,3,0,1,1,5.19,3l-2.42,4.2A3,3,0,0,1,63.75,128Z"/><path class="cls-6" d="M109.82,48.2a3,3,0,0,1-2.59-4.5l2.42-4.2a3,3,0,1,1,5.2,3l-2.43,4.2A3,3,0,0,1,109.82,48.2Z"/><path class="cls-6" d="M49.36,63.69a3,3,0,0,1-1.5-.4L44.5,61.35a3,3,0,0,1,3-5.2l3.36,1.94a3,3,0,0,1-1.5,5.6Z"/><path class="cls-6" d="M130,110.25a3,3,0,0,1-1.5-.4l-4.2-2.43a3,3,0,1,1,3-5.19l4.2,2.42a3,3,0,0,1-1.5,5.6Z"/><path class="cls-8" d="M45.26,84H37.5a3,3,0,0,1,0-6h7.76a3,3,0,0,1,0,6Z"/><path class="cls-8" d="M134.5,84h-7.76a3,3,0,0,1,0-6h7.76a3,3,0,0,1,0,6Z"/><path class="cls-8" d="M86,42.29a3,3,0,0,1-3-3V32.5a3,3,0,0,1,6,0v6.79A3,3,0,0,1,86,42.29Z"/><path class="cls-8" d="M86,132.5a3,3,0,0,1-3-3v-7.76a3,3,0,0,1,6,0v7.76A3,3,0,0,1,86,132.5Z"/><path class="cls-8" d="M44,108.25a3,3,0,0,1-1.5-5.6l4.2-2.42a3,3,0,1,1,3,5.19l-4.2,2.43A3,3,0,0,1,44,108.25Z"/><path class="cls-8" d="M123.81,62.18a3,3,0,0,1-1.51-5.6l4.2-2.43a3,3,0,0,1,3,5.2l-4.2,2.42A2.92,2.92,0,0,1,123.81,62.18Z"/><path class="cls-8" d="M63.69,45.36a3,3,0,0,1-2.6-1.5L59.15,40.5a3,3,0,0,1,5.2-3l1.94,3.36a3,3,0,0,1-2.6,4.5Z"/><path class="cls-8" d="M110.25,126a3,3,0,0,1-2.6-1.5l-2.42-4.2a3,3,0,1,1,5.19-3l2.43,4.2a3,3,0,0,1-2.6,4.5Z"/><path class="cls-8" d="M61.75,126a3,3,0,0,1-2.6-4.5l2.43-4.2a3,3,0,1,1,5.19,3l-2.42,4.2A3,3,0,0,1,61.75,126Z"/><path class="cls-8" d="M107.82,46.2a3,3,0,0,1-2.59-4.5l2.42-4.2a3,3,0,1,1,5.2,3l-2.43,4.2A3,3,0,0,1,107.82,46.2Z"/><path class="cls-8" d="M47.36,61.69a3,3,0,0,1-1.5-.4L42.5,59.35a3,3,0,0,1,3-5.2l3.36,1.94a3,3,0,0,1-1.5,5.6Z"/><path class="cls-8" d="M128,108.25a3,3,0,0,1-1.5-.4l-4.2-2.43a3,3,0,1,1,3-5.19l4.2,2.42a3,3,0,0,1-1.5,5.6Z"/><path class="cls-5" d="M86,136A54.81,54.81,0,0,1,32.5,93.83a1,1,0,1,1,2-.47A53,53,0,1,0,33,81a54.92,54.92,0,0,0,.32,5.89,1,1,0,1,1-2,.22A54,54,0,0,1,31,81a55,55,0,1,1,55,55Z"/><path class="cls-2" d="M76.81,93.35a2.48,2.48,0,0,1-1.71-.67A2.51,2.51,0,0,1,75,89.14l37.63-40.31a2.5,2.5,0,0,1,3.66,3.41L78.63,92.55A2.48,2.48,0,0,1,76.81,93.35Z"/><path class="cls-9" d="M104.28,107.88a2.5,2.5,0,0,1-2-1L76,71.83a2.5,2.5,0,0,1,4-3l26.28,35.05a2.49,2.49,0,0,1-.5,3.5A2.53,2.53,0,0,1,104.28,107.88Z"/><path class="cls-4" d="M96.58,85.12a1.45,1.45,0,0,1-.29,0L47.92,70.82a1,1,0,0,1,.56-1.92L96.86,83.16a1,1,0,0,1-.28,2Z"/><path class="cls-10" d="M89,77a6.13,6.13,0,0,1,1.67.24,6,6,0,1,0-6.34,9.52A6,6,0,0,1,89,77Z"/><path class="cls-8" d="M92,81a6,6,0,0,0-1.33-3.76A6.13,6.13,0,0,0,89,77a6,6,0,0,0-4.67,9.76A6.13,6.13,0,0,0,86,87,6,6,0,0,0,92,81Z"/><path class="cls-5" d="M86,88a7,7,0,1,1,7-7A7,7,0,0,1,86,88Zm0-12a5,5,0,1,0,5,5A5,5,0,0,0,86,76Z"/></g></g></svg>